HIERARCHY
ROOT hip
{
  OFFSET 0.0 0.0 0.0
  CHANNELS 6 Xposition Yposition Zposition Zrotation Yrotation Xrotation
  JOINT abdomen
  {
    OFFSET 0.0 20.6881 -0.73152
    CHANNELS 3 Zrotation Xrotation Yrotation
    JOINT chest
    {
      OFFSET 0.0 11.7043 -0.48768
      CHANNELS 3 Zrotation Xrotation Yrotation
      JOINT neck
      {
        OFFSET 0.0 22.1894 -2.19456
        CHANNELS 3 Zrotation Xrotation Yrotation
        JOINT head
        {
          OFFSET -0.24384 7.07133 1.2192
          CHANNELS 3 Zrotation Xrotation Yrotation
          JOINT leftEye
          {
            OFFSET 4.14528 8.04674 8.04672
            CHANNELS 3 Zrotation Xrotation Yrotation
            End Site
            {
              OFFSET 1.0 0.0 0.0
            }
          }
          JOINT rightEye
          {
            OFFSET -3.6576 8.04674 8.04672
            CHANNELS 3 Zrotation Xrotation Yrotation
            End Site
            {
              OFFSET 1.0 0.0 0.0
            }
          }
        }
      }
      JOINT rCollar
      {
        OFFSET -2.68224 19.2634 -4.8768
        CHANNELS 3 Zrotation Xrotation Yrotation
        JOINT rShldr
        {
          OFFSET -8.77824 -1.95073 1.46304
          CHANNELS 3 Zrotation Xrotation Yrotation
          JOINT rForeArm
          {
            OFFSET -28.1742 -1.7115 0.48768
            CHANNELS 3 Zrotation Xrotation Yrotation
            JOINT rHand
            {
              OFFSET -22.5879 0.773209 7.07136
              CHANNELS 3 Zrotation Xrotation Yrotation
              JOINT rThumb1
              {
                OFFSET -1.2192 -0.487915 3.41376
                CHANNELS 3 Zrotation Xrotation Yrotation
                JOINT rThumb2
                {
                  OFFSET -3.37035 -0.52449 3.41376
                  CHANNELS 3 Zrotation Xrotation Yrotation
                  End Site
                  {
                    OFFSET -1.78271 -1.18214 1.43049
                  }
                }
              }
              JOINT rIndex1
              {
                OFFSET -7.75947 0.938293 5.60832
                CHANNELS 3 Zrotation Xrotation Yrotation
                JOINT rIndex2
                {
                  OFFSET -2.54057 -0.884171 1.56538
                  CHANNELS 3 Zrotation Xrotation Yrotation
                  End Site
                  {
                    OFFSET -1.62519 -0.234802 1.16502
                  }
                }
              }
              JOINT rMid1
              {
                OFFSET -8.24714 1.18213 3.41376
                CHANNELS 3 Zrotation Xrotation Yrotation
                JOINT rMid2
                {
                  OFFSET -3.10165 -0.590103 1.0647
                  CHANNELS 3 Zrotation Xrotation Yrotation
                  End Site
                  {
                    OFFSET -2.48547 -0.328903 0.83742
                  }
                }
              }
              JOINT rRing1
              {
                OFFSET -8.82822 0.546677 1.51678
                CHANNELS 3 Zrotation Xrotation Yrotation
                JOINT rRing2
                {
                  OFFSET -2.60934 -0.819778 -0.0198488
                  CHANNELS 3 Zrotation Xrotation Yrotation
                  End Site
                  {
                    OFFSET -2.33842 -0.294052 0.168128
                  }
                }
              }
              JOINT rPinky1
              {
                OFFSET -8.27202 -0.0477905 -0.4584
                CHANNELS 3 Zrotation Xrotation Yrotation
                JOINT rPinky2
                {
                  OFFSET -1.82734 -0.647385 -0.700984
                  CHANNELS 3 Zrotation Xrotation Yrotation
                  End Site
                  {
                    OFFSET -1.69225 -0.51767 -0.607171
                  }
                }
              }
            }
          }
        }
      }
      JOINT lCollar
      {
        OFFSET 2.68224 19.2634 -4.8768
        CHANNELS 3 Zrotation Xrotation Yrotation
        JOINT lShldr
        {
          OFFSET 8.77824 -1.95073 1.46304
          CHANNELS 3 Zrotation Xrotation Yrotation
          JOINT lForeArm
          {
            OFFSET 28.1742 -1.7115 0.48768
            CHANNELS 3 Zrotation Xrotation Yrotation
            JOINT lHand
            {
              OFFSET 22.5879 0.773209 7.07136
              CHANNELS 3 Zrotation Xrotation Yrotation
              JOINT lThumb1
              {
                OFFSET 1.2192 -0.487915 3.41376
                CHANNELS 3 Zrotation Xrotation Yrotation
                JOINT lThumb2
                {
                  OFFSET 3.37035 -0.52449 3.41376
                  CHANNELS 3 Zrotation Xrotation Yrotation
                  End Site
                  {
                    OFFSET 1.78271 -1.18214 1.43049
                  }
                }
              }
              JOINT lIndex1
              {
                OFFSET 7.75947 0.938293 5.60832
                CHANNELS 3 Zrotation Xrotation Yrotation
                JOINT lIndex2
                {
                  OFFSET 2.54057 -0.884171 1.56538
                  CHANNELS 3 Zrotation Xrotation Yrotation
                  End Site
                  {
                    OFFSET 1.62519 -0.234802 1.16502
                  }
                }
              }
              JOINT lMid1
              {
                OFFSET 8.24714 1.18213 3.41376
                CHANNELS 3 Zrotation Xrotation Yrotation
                JOINT lMid2
                {
                  OFFSET 3.10165 -0.590103 1.0647
                  CHANNELS 3 Zrotation Xrotation Yrotation
                  End Site
                  {
                    OFFSET 2.48547 -0.328903 0.83742
                  }
                }
              }
              JOINT lRing1
              {
                OFFSET 8.82822 0.546677 1.51678
                CHANNELS 3 Zrotation Xrotation Yrotation
                JOINT lRing2
                {
                  OFFSET 2.60934 -0.819778 -0.0198488
                  CHANNELS 3 Zrotation Xrotation Yrotation
                  End Site
                  {
                    OFFSET 2.33842 -0.294052 0.168128
                  }
                }
              }
              JOINT lPinky1
              {
                OFFSET 8.27202 -0.0477905 -0.4584
                CHANNELS 3 Zrotation Xrotation Yrotation
                JOINT lPinky2
                {
                  OFFSET 1.82734 -0.647385 -0.700984
                  CHANNELS 3 Zrotation Xrotation Yrotation
                  End Site
                  {
                    OFFSET 1.69225 -0.51767 -0.607171
                  }
                }
              }
            }
          }
        }
      }
    }
  }
  JOINT rButtock
  {
    OFFSET -8.77824 4.35084 1.2192
    CHANNELS 3 Zrotation Xrotation Yrotation
    JOINT rThigh
    {
      OFFSET 0.0 -1.70687 -2.19456
      CHANNELS 3 Zrotation Xrotation Yrotation
      JOINT rShin
      {
        OFFSET 0.0 -36.8199 0.73152
        CHANNELS 3 Zrotation Xrotation Yrotation
        JOINT rFoot
        {
          OFFSET 0.73152 -45.1104 -5.12064
          CHANNELS 3 Zrotation Xrotation Yrotation
          End Site
          {
            OFFSET -1.1221 -3.69964 12.103
          }
        }
      }
    }
  }
  JOINT lButtock
  {
    OFFSET 8.77824 4.35084 1.2192
    CHANNELS 3 Zrotation Xrotation Yrotation
    JOINT lThigh
    {
      OFFSET 0.0 -1.70687 -2.19456
      CHANNELS 3 Zrotation Xrotation Yrotation
      JOINT lShin
      {
        OFFSET 0.0 -36.8199 0.73152
        CHANNELS 3 Zrotation Xrotation Yrotation
        JOINT lFoot
        {
          OFFSET -0.73152 -45.1104 -5.12064
          CHANNELS 3 Zrotation Xrotation Yrotation
          End Site
          {
            OFFSET 1.1221 -3.69964 12.103
          }
        }
      }
    }
  }
}
MOTION
Frames: 5
Frame Time: 0.00833333
-51.519 83.0156 -33.1438 -117.705 85.7903 -117.417 0.424208 0.704803 -3.98039 -1.3974 -0.57843 -1.36081 0.794188 9.54735 -0.279275 3.80937 -19.8702 0.10726 -0.0 0.0 0.0 -0.0 0.0 0.0 -2.84868e-14 3.76526e-13 -1.83565e-14 82.825 12.6929 -2.04554 -10.2994 -4.32532 18.364 -0.0597533 6.95837 0.982821 2.11965e-09 1.2826e-09 -2.90053e-09 3.64424e-09 2.22515e-09 -5.0277e-09 2.11965e-09 1.2826e-09 -2.90055e-09 7.73091 5.47488 0.417314 2.11964e-09 1.2826e-09 -2.90054e-09 2.90554 0.965183 0.102902 2.11965e-09 1.2826e-09 -2.90053e-09 10.2786 0.731801 0.0259123 2.11964e-09 1.2826e-09 -2.90052e-09 2.22167 -0.733487 -0.20892 -2.84172e-14 3.76526e-13 -1.86423e-14 -82.7306 8.12104 1.60567 8.69269 -3.38394 -15.3717 0.168275 -11.6164 1.65552 2.0703e-09 -7.37078e-10 3.04133e-09 3.55868e-09 -1.27214e-09 5.27031e-09 2.0703e-09 -7.37073e-10 3.04135e-09 -7.73091 5.47488 -0.417314 2.0703e-09 -7.37077e-10 3.04134e-09 -2.90554 0.965183 -0.102902 2.0703e-09 -7.37078e-10 3.04134e-09 -10.2786 0.731801 -0.0259123 2.0703e-09 -7.37077e-10 3.04134e-09 -2.22167 -0.733487 0.20892 -2.03217e-16 0.0 -3.88251e-19 4.99812 -19.8868 0.712004 -0.176709 30.421 0.836395 -1.29806 0.590022 -8.50371 2.03217e-16 0.0 3.88251e-19 4.50612 12.0927 8.30529 0.0583147 34.5495 -1.00514 -0.0768449 29.9991 1.40594
-50.7582 83.0728 -32.9873 -116.716 85.5526 -116.601 0.760022 0.850778 -3.8816 -1.47538 -0.569544 -1.32782 0.798219 9.55697 -0.316145 3.86448 -19.7639 0.0432243 -0.0 0.0 0.0 -0.0 0.0 0.0 -4.53688e-14 4.56086e-13 -3.28414e-14 82.8102 12.9063 -1.98118 -10.3488 -4.35607 18.4571 -0.0570756 6.80263 0.960608 1.94087e-09 9.31466e-10 -1.72738e-09 3.3429e-09 1.61829e-09 -2.99837e-09 1.94087e-09 9.31471e-10 -1.7274e-09 7.73091 5.47488 0.417314 1.94087e-09 9.31465e-10 -1.72738e-09 2.90554 0.965183 0.102902 1.94087e-09 9.31465e-10 -1.72738e-09 10.2786 0.731801 0.0259123 1.94086e-09 9.31465e-10 -1.72737e-09 2.22167 -0.733487 -0.20892 -4.52862e-14 4.56083e-13 -3.31093e-14 -82.6608 7.77749 1.63005 8.63066 -3.34984 -15.2574 0.162202 -11.407 1.62487 2.01362e-09 -8.39802e-10 1.75223e-09 3.47062e-09 -1.44997e-09 3.0413e-09 2.01361e-09 -8.39797e-10 1.75225e-09 -7.73091 5.47488 -0.417314 2.01362e-09 -8.39801e-10 1.75224e-09 -2.90554 0.965183 -0.102902 2.01361e-09 -8.39801e-10 1.75224e-09 -10.2786 0.731801 -0.0259123 2.01362e-09 -8.398e-10 1.75223e-09 -2.22167 -0.733487 0.20892 -2.03217e-16 0.0 -3.88251e-19 5.32965 -19.0672 0.457848 -0.176918 30.1782 0.808408 -1.297 0.469354 -8.36525 2.03217e-16 0.0 3.88251e-19 5.05871 11.0066 8.33842 0.120857 36.7104 -1.02528 -0.216271 30.74 1.645
-50.0264 83.119 -32.8389 -115.699 85.3288 -115.742 1.11322 0.990956 -3.7827 -1.5603 -0.54363 -1.29358 0.80236 9.55853 -0.347322 3.91131 -19.6851 -0.0109363 -0.0 0.0 0.0 -0.0 0.0 0.0 -7.16047e-14 8.25158e-13 -4.15957e-14 82.7771 13.1232 -1.87353 -10.3908 -4.38227 18.5364 -0.0548334 6.66737 0.941333 1.84998e-09 6.80839e-10 -1.06835e-09 3.19009e-09 1.18511e-09 -1.85848e-09 1.84999e-09 6.80844e-10 -1.06837e-09 7.73091 5.47488 0.417314 1.84998e-09 6.80837e-10 -1.06836e-09 2.90554 0.965183 0.102902 1.84999e-09 6.80837e-10 -1.06835e-09 10.2786 0.731801 0.0259123 1.84998e-09 6.80836e-10 -1.06834e-09 2.22167 -0.733487 -0.20892 -7.1525e-14 8.25153e-13 -4.18442e-14 -82.5903 7.45503 1.6312 8.57918 -3.32158 -15.1626 0.157842 -11.252 1.60222 2.0074e-09 -7.55632e-10 1.10409e-09 3.46454e-09 -1.30397e-09 1.92084e-09 2.0074e-09 -7.55628e-10 1.10412e-09 -7.73091 5.47488 -0.417314 2.0074e-09 -7.55631e-10 1.10411e-09 -2.90554 0.965183 -0.102902 2.0074e-09 -7.55631e-10 1.1041e-09 -10.2786 0.731801 -0.0259123 2.0074e-09 -7.5563e-10 1.10409e-09 -2.22167 -0.733487 0.20892 -2.03217e-16 0.0 -3.88251e-19 5.66341 -18.2943 0.230981 -0.177325 29.9642 0.781026 -1.29092 0.371171 -8.21048 2.03217e-16 0.0 3.88251e-19 5.5962 9.88981 8.32507 0.17885 38.761 -1.04627 -0.268781 30.9216 1.74332
-49.3152 83.1573 -32.699 -114.685 85.1127 -114.87 1.48895 1.11959 -3.68178 -1.65446 -0.49447 -1.25732 0.80639 9.54694 -0.37111 3.94928 -19.6318 -0.0521949 -0.0 0.0 0.0 -0.0 0.0 0.0 -1.21135e-13 1.78975e-12 -4.30823e-14 82.7212 13.3417 -1.71142 -10.4213 -4.40132 18.594 -0.0530984 6.55977 0.926009 1.92162e-09 5.71423e-10 -1.22015e-09 3.31276e-09 9.9603e-10 -2.12144e-09 1.92162e-09 5.71426e-10 -1.22017e-09 7.73091 5.47488 0.417314 1.92162e-09 5.71419e-10 -1.22016e-09 2.90554 0.965183 0.102902 1.92162e-09 5.71419e-10 -1.22015e-09 10.2786 0.731801 0.0259123 1.92161e-09 5.71419e-10 -1.22014e-09 2.22167 -0.733487 -0.20892 -1.21085e-13 1.78974e-12 -4.33036e-14 -82.5182 7.14436 1.60573 8.53905 -3.2996 -15.0889 0.155198 -11.1567 1.58831 2.12542e-09 -3.19645e-10 1.49809e-09 3.66456e-09 -5.48238e-10 2.60307e-09 2.12542e-09 -3.19642e-10 1.49812e-09 -7.73091 5.47488 -0.417314 2.12542e-09 -3.19644e-10 1.49811e-09 -2.90554 0.965183 -0.102902 2.12542e-09 -3.19645e-10 1.4981e-09 -10.2786 0.731801 -0.0259123 2.12542e-09 -3.19643e-10 1.49809e-09 -2.22167 -0.733487 0.20892 -2.03217e-16 0.0 -3.88251e-19 5.9993 -17.5762 0.0460719 -0.177858 29.7841 0.753915 -1.27817 0.301797 -8.02929 2.03217e-16 0.0 3.88251e-19 6.11493 8.73584 8.2651 0.230339 40.7085 -1.06719 -0.212832 30.392 1.6783
-48.6229 83.1885 -32.5656 -113.67 84.8927 -113.987 1.87969 1.24102 -3.57152 -1.75866 -0.427232 -1.21753 0.81133 9.52311 -0.388986 3.97945 -19.5975 -0.083478 -0.0 0.0 0.0 -0.0 0.0 0.0 -1.87535e-13 3.16739e-12 -4.03564e-14 82.6458 13.5689 -1.50184 -10.4432 -4.41501 18.6353 -0.0517362 6.47554 0.914015 2.06779e-09 5.25395e-10 -1.84282e-09 3.56111e-09 9.16405e-10 -3.19895e-09 2.0678e-09 5.25394e-10 -1.84284e-09 7.73091 5.47488 0.417314 2.0678e-09 5.25389e-10 -1.84283e-09 2.90554 0.965183 0.102902 2.0678e-09 5.25388e-10 -1.84282e-09 10.2786 0.731801 0.0259123 2.06779e-09 5.2539e-10 -1.84281e-09 2.22167 -0.733487 -0.20892 -1.87534e-13 3.16739e-12 -4.05428e-14 -82.4425 6.84012 1.55301 8.50905 -3.28328 -15.0337 0.15354 -11.0974 1.57965 2.30264e-09 3.66794e-10 2.51511e-09 3.96165e-09 6.41518e-10 4.36292e-09 2.30263e-09 3.66795e-10 2.51513e-09 -7.73091 5.47488 -0.417314 2.30264e-09 3.66794e-10 2.51512e-09 -2.90554 0.965183 -0.102902 2.30263e-09 3.66794e-10 2.51511e-09 -10.2786 0.731801 -0.0259123 2.30264e-09 3.66797e-10 2.51511e-09 -2.22167 -0.733487 0.20892 -2.03217e-16 0.0 -3.88251e-19 6.33319 -16.9002 -0.103754 -0.178232 29.6249 0.727968 -1.26067 0.256812 -7.83058 2.03217e-16 0.0 3.88251e-19 6.60587 7.55888 8.17383 0.280842 42.5487 -1.09 -0.0890191 29.3294 1.50667
